<svg width="120" height="123" viewBox="0 0 120 123" fill="none" xmlns="http://www.w3.org/2000/svg">
<g id="&#240;&#159;&#166;&#134; icon &#34;heart&#34;">
<path id="Vector" d="M60 107.625C59.3419 107.629 58.6896 107.5 58.0804 107.245C57.4713 106.99 56.9172 106.614 56.45 106.139L17.6 66.2663C12.7268 61.2191 9.99329 54.4048 9.99329 47.3038C9.99329 40.2027 12.7268 33.3885 17.6 28.3413C22.5113 23.3214 29.1641 20.5024 36.1 20.5024C43.0358 20.5024 49.6887 23.3214 54.6 28.3413L60 33.8763L65.4 28.3413C70.3113 23.3214 76.9641 20.5024 83.9 20.5024C90.8358 20.5024 97.4887 23.3214 102.4 28.3413C107.273 33.3885 110.007 40.2027 110.007 47.3038C110.007 54.4048 107.273 61.2191 102.4 66.2663L63.55 106.139C63.0828 106.614 62.5287 106.99 61.9195 107.245C61.3103 107.5 60.658 107.629 60 107.625Z" fill="#F04D92" fill-opacity="0.99"/>
</g>
</svg>
